<svg width="860" height="452" viewBox="0 0 860 452" fill="none" xmlns="http://www.w3.org/2000/svg">
<g clip-path="url(#clip0_497_1488)">
<rect width="860" height="452" fill="white"/>
<path d="M442.08 160.157H479.338V141.772H391.798V160.157H423.855V199.148H389.397V217.57H481.728V199.148H442.08V160.157V160.157ZM840.468 146.42H773.772C775.607 140.845 776.524 136.843 776.886 135.098H758.142C757.418 137.77 756.211 141.686 754.377 146.42H701.573V164.805H745.783C733.963 185.989 717.364 204.055 697.336 217.534H725.434C742.411 202.922 756.285 184.985 766.217 164.805H833.975V199.112H784.635V217.497H840.468C846.913 217.497 852.175 212.202 852.175 205.663V158.254C852.163 155.119 850.925 152.117 848.732 149.9C846.539 147.684 843.569 146.433 840.468 146.42V146.42ZM566.721 48.4663H522.848C519.745 48.4727 516.771 49.7216 514.577 51.9395C512.383 54.1574 511.147 57.1637 511.141 60.3003V145.285C511.141 183.313 503.332 207.627 499.337 217.57H518.769C522.643 206.139 527.278 187.802 528.799 162.585H560.227V199.148H541.797V217.534H566.697C573.13 217.534 578.404 212.239 578.404 205.7V60.2271C578.402 58.68 578.099 57.1484 577.512 55.7199C576.924 54.2913 576.064 52.9938 574.98 51.9016C573.896 50.8093 572.61 49.9437 571.195 49.3543C569.78 48.7648 568.263 48.4631 566.733 48.4663H566.721ZM560.203 66.8517V96.1927H529.306V66.8517H560.203ZM529.306 144.2V114.602H560.203V144.187H529.306V144.2ZM652.667 188.559C672.184 155.228 675.696 133.085 675.973 129.45C676.095 127.826 675.883 126.194 675.351 124.656C674.82 123.118 673.98 121.708 672.885 120.514C671.789 119.319 670.461 118.366 668.984 117.714C667.508 117.062 665.914 116.726 664.302 116.725H608.783V66.8395H654.273V87.2867H630.013V105.672H660.79C667.223 105.672 672.497 100.377 672.497 93.8381V60.2637C672.491 57.1271 671.256 54.1208 669.061 51.9029C666.867 49.685 663.893 48.4361 660.79 48.4297H602.253C599.15 48.4361 596.176 49.685 593.982 51.9029C591.788 54.1208 590.552 57.1271 590.546 60.2637V217.522H608.735V135.098H656.747C655.347 142.492 650.676 155.387 642.239 171.271C637.686 162.583 633.863 153.523 630.81 144.187H611.776C612.935 148.64 618.414 167.868 631.485 189.657C625.324 199.309 618.665 208.626 611.535 217.57H633.32C636.482 213.374 639.319 209.335 641.998 205.334C645.112 209.457 648.479 213.532 652.197 217.57H678.701C668.752 209.149 659.992 199.387 652.667 188.559V188.559ZM347.817 48.4663H328.953L325.356 62.4963H306.648V80.8695H320.649L309.69 123.496C308.483 127.9 309.412 132.475 312.128 136.062C314.844 139.661 319.008 141.772 323.473 141.772H343.026V166.538L306.648 172.674V191.06L343.026 184.923V217.534H361.214V181.849L380.719 178.543V160.145L361.214 163.463V141.784H378.558V123.386H361.214V101.683H343.026V123.386H328.591L339.501 80.8695H380.719V62.4841H344.221L347.817 48.4663V48.4663ZM479.338 135.989V116.042C468.392 111.219 457.948 105.306 448.163 98.3887C459.592 86.9085 466.267 77.0143 468.391 73.6227C471.022 69.4503 471.179 64.1555 468.826 59.8367C467.624 57.643 465.863 55.8149 463.725 54.5425C461.588 53.2702 459.152 52.6001 456.672 52.6021H390.929V70.9875H447.933C432.914 90.564 413.329 106.073 390.929 116.127V136.05C406.55 129.966 421.151 121.489 434.222 110.918C447.137 120.654 462.284 129.047 479.362 136.001L479.338 135.989Z" fill="#333333"/>
<path d="M802.497 106.855C822.774 96.5587 837.04 85.8105 844.837 77.4779C846.423 75.805 847.486 73.6973 847.894 71.4175C848.303 69.1377 848.038 66.7869 847.133 64.6583C846.228 62.5297 844.723 60.7175 842.806 59.4479C840.889 58.1782 838.644 57.5072 836.352 57.5187H754.727C757.647 53.2365 759.603 50.0035 760.52 48.4297H738.783C732.145 57.8847 720.473 72.4271 704.518 84.7491V107.185C713.127 101.652 721.186 95.2905 728.584 88.1895C730.66 90.1293 739.495 97.7665 755.451 106.575C737.487 112.179 719.106 116.311 700.486 118.933V137.563C730.781 133.415 756.851 126.095 778.431 117.604C798.623 125.973 825.043 133.769 858.065 137.441V118.933C839.187 116.814 820.569 112.767 802.497 106.855V106.855ZM742.295 75.9407H818.767C810.137 82.4921 797.018 90.4099 779.276 97.8885C758.323 88.4701 746.133 79.1005 742.295 75.9407V75.9407Z" fill="#333333"/>
<path d="M107.488 80.5416L155.883 163.774H190.57L106.244 18.625L0 201.625H37.175L107.506 80.5416H107.497H107.488Z" fill="url(#paint0_linear_497_1488)"/>
<path d="M78.2765 215.092L127.703 132.661L109.628 102.5L22.8682 247.375H243.93L224.607 215.092H78.2765V215.092Z" fill="url(#paint1_linear_497_1488)"/>
<path d="M116.521 171.745L99.0967 201.625H266.798L159.99 18.625L141.316 50.6527L211.982 171.745H116.503H116.521Z" fill="url(#paint2_linear_497_1488)"/>
<path d="M3.25 368.364H36.3523V382H46.4091V368.364H55.6477V359.432H46.4091V312.182H33.4205L3.25 359.841V368.364ZM36.4205 359.432H14.2955V358.886L35.875 324.727H36.4205V359.432Z" fill="black"/>
<path d="M68.3957 382.648C72.1116 382.648 75.2139 379.614 75.2139 375.83C75.2139 372.114 72.1116 369.045 68.3957 369.045C64.6457 369.045 61.5775 372.114 61.5775 375.83C61.5775 379.614 64.6457 382.648 68.3957 382.648Z" fill="black"/>
<path d="M106.618 382.955C121.141 382.955 131.402 374.705 131.47 363.386C131.402 354.591 125.232 347.193 117.425 345.795V345.386C124.209 343.75 128.811 337.375 128.879 329.841C128.811 319.17 119.402 311.227 106.618 311.227C93.6976 311.227 84.2885 319.17 84.3567 329.841C84.2885 337.341 88.8908 343.75 95.8112 345.386V345.795C87.8681 347.193 81.6976 354.591 81.7658 363.386C81.6976 374.705 91.959 382.955 106.618 382.955ZM106.618 374.33C97.8908 374.33 92.3681 369.693 92.4362 362.705C92.3681 355.443 98.3681 350.261 106.618 350.261C114.732 350.261 120.732 355.443 120.8 362.705C120.732 369.693 115.243 374.33 106.618 374.33ZM106.618 341.841C99.5612 341.841 94.5499 337.375 94.6181 330.727C94.5499 324.182 99.3908 319.852 106.618 319.852C113.709 319.852 118.55 324.182 118.618 330.727C118.55 337.375 113.573 341.841 106.618 341.841Z" fill="black"/>
<path d="M140.323 382H186.278V372.966H154.846V372.455L168.721 357.932C181.505 345.011 185.153 338.841 185.153 331.034C185.153 319.818 176.017 311.227 162.857 311.227C149.801 311.227 140.255 319.682 140.255 332.432H150.312C150.278 324.932 155.119 320.023 162.653 320.023C169.744 320.023 175.13 324.386 175.13 331.341C175.13 337.511 171.448 341.943 163.948 349.886L140.323 374.364V382Z" fill="black"/>
<path d="M303.809 344.656C302.273 336.976 297.761 325.648 292.577 317.104L286.529 319.024C291.425 327.664 295.841 339.28 297.281 346.864L303.809 344.656ZM280.481 301.744H273.473V351.952C273.473 353.2 272.993 353.584 271.745 353.584C270.593 353.68 266.561 353.68 261.953 353.584C263.009 355.408 264.161 358.48 264.449 360.304C270.881 360.4 274.721 360.112 277.121 359.056C279.713 357.808 280.481 355.792 280.481 352.048V301.744ZM259.265 317.68C257.249 328.24 253.793 338.896 248.801 345.808C250.529 346.576 253.601 348.208 254.945 349.264C259.745 341.776 263.681 330.352 266.081 318.832L259.265 317.68ZM251.777 354.256C249.857 352.048 241.697 343.6 238.721 341.104V335.248H250.721V328.528H238.721V312.304C243.233 311.248 247.457 309.904 250.913 308.464L245.921 303.088C238.913 306.256 226.337 309.04 215.585 310.768C216.449 312.4 217.409 314.704 217.793 316.336C222.209 315.664 227.105 314.896 231.809 313.936V328.528H216.161V335.248H230.849C227.009 346.192 220.385 358.576 214.337 365.296C215.489 367.024 217.217 369.808 217.889 371.824C222.785 365.968 227.873 356.368 231.809 346.672V389.104H238.721V348.016C241.985 351.952 245.921 357.232 247.457 359.92L251.777 354.256ZM290.849 348.592C285.185 367.6 272.033 378.16 248.705 382.768C250.241 384.4 251.969 387.184 252.641 389.2C277.409 383.344 291.425 371.536 297.761 350.416L290.849 348.592Z" fill="black"/>
<path d="M356.129 312.304H336.641V302.032H329.825V312.304H310.625V318.544H356.129V312.304ZM344.321 337.744C346.337 333.52 348.641 327.184 350.657 321.616L343.937 319.984C342.785 324.784 340.385 331.888 338.561 336.304L344.321 337.744ZM326.849 336.016C326.369 331.888 324.641 325.36 322.433 320.656L316.481 321.904C318.497 326.8 320.225 333.232 320.705 337.456L326.849 336.016ZM345.185 359.824V377.488H321.185V359.824H345.185ZM314.561 389.392H321.185V383.728H345.185V388.816H352.097V353.488H314.561V389.392ZM308.129 345.136H357.473V338.608H308.129V345.136ZM390.689 307.024L389.537 307.312H361.313V389.296H368.225V314.032H386.369C383.393 321.712 379.169 332.08 375.233 340.144C384.929 348.496 387.617 355.6 387.617 361.648C387.617 365.104 387.041 367.984 385.025 369.232C383.873 369.904 382.337 370.192 380.897 370.288C378.881 370.384 376.289 370.384 373.313 370.096C374.561 372.112 375.233 375.184 375.329 377.2C378.113 377.296 381.281 377.296 383.681 377.008C386.177 376.72 388.193 376.048 389.921 374.896C393.281 372.688 394.625 368.272 394.625 362.416C394.529 355.6 392.129 348.016 382.529 339.184C387.041 330.448 391.937 319.408 395.873 310.384L390.689 307.024Z" fill="black"/>
<path d="M445.025 344.848V337.648H465.281C461.633 340.144 457.697 342.64 453.473 344.848H445.025ZM471.233 368.848H428.897V362.512H471.233V368.848ZM428.897 380.752V373.744H471.233V380.752H428.897ZM436.385 319.888V310.672H452.129V319.888H436.385ZM429.761 319.888H414.497V310.672H429.761V319.888ZM458.753 310.672H474.977V319.888H458.753V310.672ZM486.977 350.704V344.848H465.665C471.713 341.008 477.281 336.688 481.985 332.08L476.417 328.528C473.441 331.408 470.177 334.192 466.529 336.784V331.888H445.025V325.168H481.985V305.488H407.681V325.168H438.113V331.888H411.713V337.648H438.113V344.848H402.209V350.704H441.473C428.513 356.368 414.209 360.688 400.193 363.664C401.249 365.104 403.073 368.272 403.745 369.808C409.889 368.272 416.129 366.544 422.177 364.624V389.2H428.897V386.128H471.233V388.912H478.145V357.136H442.049C446.753 355.216 451.265 353.008 455.681 350.704H486.977Z" fill="black"/>
<path d="M533.729 354.928C533.729 365.2 529.697 376.432 494.273 383.632C495.809 385.072 497.825 387.856 498.593 389.392C535.649 381.328 540.929 368.08 540.929 355.024V337.744H533.729V354.928ZM541.409 371.344C552.545 376.336 566.753 384.304 573.761 389.68L578.177 384.016C570.881 378.736 556.385 371.248 545.441 366.448L541.409 371.344ZM496.481 306.928V313.648H532.289C531.137 317.392 529.409 321.712 527.873 325.072H505.889V369.616H512.993V331.696H561.857V369.424H569.345V325.072H535.073C536.801 321.712 538.721 317.584 540.449 313.648H578.561V306.928H496.481Z" fill="black"/>
<path d="M660.257 377.68H645.857V333.52H660.257V377.68ZM598.913 333.52H612.545V377.68H598.913V333.52ZM639.329 344.08H619.073V333.52H639.329V344.08ZM619.073 366.544H639.329V377.68H619.073V366.544ZM639.329 360.688H619.073V349.936H639.329V360.688ZM672.065 314.896V308.08H587.681V314.896H624.449C623.681 318.832 622.721 323.248 621.665 326.896H592.001V389.392H598.913V384.304H660.257V389.392H667.457V326.896H628.961C630.209 323.248 631.553 318.928 632.705 314.896H672.065Z" fill="black"/>
<path d="M710.657 343.12C706.721 344.272 702.785 345.424 698.945 346.576V327.664H711.041V320.944H698.945V301.744H691.937V320.944H679.073V327.664H691.937V348.496C686.657 349.936 681.857 351.184 677.921 352.048L680.033 359.056L691.937 355.6V380.272C691.937 381.616 691.361 382.096 690.017 382.096C688.865 382.096 684.737 382.192 680.225 382C681.089 383.92 682.145 386.8 682.433 388.624C688.961 388.624 692.993 388.432 695.393 387.28C697.889 386.224 698.945 384.304 698.945 380.272V353.488C703.073 352.24 707.393 350.992 711.521 349.648L710.657 343.12ZM743.969 380.752C740.609 380.752 740.033 379.984 740.033 375.952V347.056L765.665 343.12L764.609 336.688L740.033 340.336V314.512C747.233 312.784 753.953 310.672 759.329 308.464L753.185 303.088C744.161 307.312 727.649 311.152 713.153 313.552C714.017 315.088 715.073 317.776 715.457 319.312C721.025 318.544 727.073 317.392 733.025 316.144V341.392L712.673 344.368L713.825 351.088L733.025 348.112V375.856C733.025 384.976 735.137 387.472 743.105 387.472H756.065C763.649 387.472 765.377 382.768 766.241 368.56C764.225 368.08 761.345 366.736 759.617 365.392C759.233 377.776 758.753 380.752 755.585 380.752H743.969Z" fill="black"/>
<path d="M840.737 371.248V380.56H795.713V371.248H840.737ZM834.593 345.52V353.68H795.713V345.52H834.593ZM795.713 359.152H841.601V340.048H788.993V389.392H795.713V386.128H840.737V389.2H847.745V365.68H795.713V359.152ZM858.593 308.944H826.049C827.201 307.024 828.161 304.912 829.025 302.896L822.209 301.264C820.289 306.064 817.313 310.576 813.761 314.512V308.944H788.609C789.665 307.024 790.625 305.008 791.393 302.992L784.769 301.264C781.889 308.752 776.705 316.24 770.945 321.232C772.673 322.096 775.457 324.016 776.801 325.072C779.585 322.288 782.465 318.832 785.057 314.896H789.185C791.009 318.256 792.929 322.096 793.697 324.688L800.033 322.768C799.361 320.656 797.921 317.68 796.289 314.896H813.377C811.553 316.912 809.537 318.64 807.425 320.176C808.481 320.656 810.017 321.52 811.361 322.384V328.432H775.169V346.384H781.889V334.096H848.609V346.384H855.521V328.432H818.177V320.944H816.737C818.561 319.12 820.385 317.104 822.113 314.896H829.793C832.481 318.256 835.169 322.192 836.225 324.976L842.753 322.768C841.697 320.56 839.681 317.584 837.569 314.896H858.593V308.944Z" fill="black"/>
</g>
<defs>
<linearGradient id="paint0_linear_497_1488" x1="190.886" y1="95.0817" x2="0.146258" y2="170.336" gradientUnits="userSpaceOnUse">
<stop stop-color="#2153F6"/>
<stop offset="1" stop-color="#5AA2F8"/>
</linearGradient>
<linearGradient id="paint1_linear_497_1488" x1="113.256" y1="130.884" x2="108.282" y2="264.409" gradientUnits="userSpaceOnUse">
<stop stop-color="#2153F6"/>
<stop offset="1" stop-color="#5AA2F8"/>
</linearGradient>
<linearGradient id="paint2_linear_497_1488" x1="131.952" y1="202.73" x2="222.429" y2="116.625" gradientUnits="userSpaceOnUse">
<stop stop-color="#2153F6"/>
<stop offset="1" stop-color="#5AA2F8"/>
</linearGradient>
<clipPath id="clip0_497_1488">
<rect width="860" height="452" fill="white"/>
</clipPath>
</defs>
</svg>
